<svg width="35" height="35" viewBox="0 0 186 185" fill="none" xmlns="http://www.w3.org/2000/svg">
  <path d="M186 0H0V185H186V0Z" fill="#F7DF1E"/>
  <path d="M124.945 144.532C128.691 150.616 133.566 155.089 142.187 155.089C149.429 155.089 154.055 151.489 154.055 146.514C154.055 140.553 149.302 138.442 141.33 134.974L136.961 133.109C124.348 127.765 115.97 121.069 115.97 106.915C115.97 93.8772 125.957 83.9518 141.567 83.9518C152.679 83.9518 160.669 87.7987 166.426 97.8709L152.815 106.563C149.819 101.218 146.586 99.113 141.567 99.113C136.447 99.113 133.203 102.343 133.203 106.563C133.203 111.778 136.45 113.89 143.949 117.12L148.319 118.981C163.169 125.315 171.554 131.773 171.554 146.291C171.554 161.943 159.192 170.517 142.591 170.517C126.359 170.517 115.872 162.823 110.741 152.74L124.945 144.532ZM63.2016 146.038C65.9473 150.884 68.4451 154.98 74.4502 154.98C80.1926 154.98 83.8152 152.745 83.8152 144.056V84.9444H101.293V144.291C101.293 162.292 90.6824 170.485 75.1942 170.485C61.1999 170.485 53.0956 163.282 48.9741 154.606L63.2016 146.038Z" fill="black"/>
</svg>
