<svg width="35" height="35" viewBox="0 0 250 187" fill="none" xmlns="http://www.w3.org/2000/svg">
  <path d="M215.27 107.499C206.548 107.545 198.968 109.64 192.62 112.737C190.292 108.137 187.963 104.038 187.552 101.032C187.095 97.5246 186.547 95.3839 187.095 91.1938C187.643 87.0036 190.109 81.0372 190.063 80.5817C190.018 80.1262 189.515 77.9856 184.492 77.9401C179.469 77.8945 175.131 78.8965 174.629 80.2173C174.127 81.5382 173.168 84.5441 172.529 87.6412C171.661 92.1958 162.483 108.455 157.231 116.972C155.542 113.648 154.081 110.733 153.761 108.41C153.304 104.903 152.756 102.762 153.304 98.5721C153.852 94.3819 156.318 88.4155 156.272 87.9601C156.227 87.5046 155.724 85.364 150.701 85.3184C145.678 85.2729 141.34 86.2749 140.838 87.5957C140.336 88.9165 139.788 92.0136 138.738 95.0196C137.687 98.0256 125.495 125.171 122.299 132.185C120.655 135.783 119.239 138.652 118.235 140.61C118.235 140.61 118.189 140.747 118.052 140.975C117.184 142.66 116.682 143.571 116.682 143.571C116.682 143.571 116.682 143.571 116.682 143.616C115.997 144.846 115.267 145.985 114.901 145.985C114.627 145.985 114.125 142.706 114.993 138.242C116.819 128.814 121.157 114.149 121.111 113.648C121.111 113.374 121.933 110.824 118.28 109.503C114.719 108.182 113.44 110.368 113.12 110.368C112.801 110.368 112.572 111.143 112.572 111.143C112.572 111.143 116.545 94.6552 104.992 94.6552C97.7775 94.6552 87.8228 102.535 82.8912 109.64C79.7861 111.325 73.1649 114.923 66.087 118.794C63.3929 120.297 60.6074 121.8 58.0046 123.212C57.8219 123.03 57.6393 122.802 57.4566 122.62C43.4836 107.727 17.6381 97.2057 18.734 77.2113C19.145 69.9241 21.6565 50.7951 68.3702 27.5669C106.819 8.66563 137.413 13.9033 142.71 25.5174C150.29 42.0959 126.317 72.8845 86.5899 77.348C71.4296 79.0332 63.4842 73.2034 61.475 71.0172C59.3745 68.7399 59.0548 68.6033 58.2786 69.0587C57 69.7419 57.8219 71.7915 58.2786 72.9756C59.4658 76.0727 64.3518 81.5382 72.6169 84.2253C79.923 86.5937 97.6861 87.9145 119.194 79.6253C143.258 70.334 162.072 44.5098 156.546 22.8758C151.021 0.922918 114.49 -6.31879 79.923 5.93291C59.3745 13.2202 37.0907 24.6976 21.0628 39.6365C2.02116 57.3991 -0.992624 72.839 0.24029 79.3064C4.66965 102.261 36.4058 117.2 49.1002 128.268C48.4609 128.632 47.8673 128.951 47.365 129.224C41.0178 132.367 16.8161 144.983 10.7886 158.328C3.93903 173.449 11.8845 184.288 17.1358 185.746C33.4376 190.255 50.1961 182.148 59.1918 168.757C68.1875 155.367 67.0916 137.969 62.9362 129.998C62.8906 129.907 62.8449 129.816 62.7536 129.725C64.3975 128.769 66.087 127.767 67.7309 126.81C70.973 124.897 74.1694 123.121 76.9092 121.664C75.3567 125.899 74.2151 130.955 73.6672 138.242C72.9822 146.805 76.4983 157.918 81.1103 162.29C83.1652 164.203 85.5853 164.248 87.1379 164.248C92.5262 164.248 94.9463 159.785 97.6405 154.502C100.928 148.034 103.896 140.519 103.896 140.519C103.896 140.519 100.198 160.833 110.244 160.833C113.897 160.833 117.595 156.096 119.239 153.682C119.239 153.727 119.239 153.727 119.239 153.727C119.239 153.727 119.331 153.591 119.513 153.272C119.879 152.68 120.107 152.316 120.107 152.316C120.107 152.316 120.107 152.27 120.107 152.225C121.568 149.674 124.856 143.89 129.742 134.28C136.043 121.891 142.117 106.406 142.117 106.406C142.117 106.406 142.665 110.186 144.537 116.471C145.633 120.161 147.916 124.214 149.742 128.131C148.281 130.181 147.368 131.319 147.368 131.319C147.368 131.319 147.368 131.319 147.414 131.365C146.226 132.913 144.948 134.598 143.532 136.238C138.555 142.159 132.619 148.945 131.797 150.904C130.838 153.226 131.066 154.912 132.893 156.278C134.217 157.28 136.591 157.417 139.012 157.28C143.487 156.961 146.637 155.868 148.19 155.185C150.61 154.32 153.441 152.999 156.09 151.04C160.976 147.442 163.944 142.296 163.67 135.509C163.533 131.775 162.3 128.04 160.793 124.533C161.25 123.895 161.661 123.258 162.117 122.62C169.834 111.37 175.816 99.0276 175.816 99.0276C175.816 99.0276 176.364 102.808 178.236 109.093C179.15 112.281 181.022 115.743 182.666 119.113C175.405 124.988 170.93 131.82 169.332 136.284C166.455 144.573 168.693 148.308 172.94 149.173C174.857 149.583 177.597 148.672 179.606 147.807C182.164 146.987 185.177 145.575 188.054 143.48C192.94 139.882 197.643 134.872 197.369 128.085C197.233 124.988 196.411 121.937 195.269 118.976C201.434 116.426 209.379 115.014 219.516 116.198C241.252 118.749 245.544 132.276 244.723 137.969C243.901 143.662 239.334 146.759 237.827 147.716C236.32 148.672 235.818 148.991 235.955 149.674C236.138 150.676 236.868 150.63 238.147 150.448C239.928 150.129 249.563 145.848 249.974 135.373C250.659 121.982 237.873 107.362 215.27 107.499ZM47.5933 163.884C40.3785 171.718 30.3325 174.678 25.9945 172.173C21.3368 169.486 23.1634 157.918 32.0221 149.628C37.4104 144.573 44.3512 139.882 48.9632 137.012C50.0135 136.375 51.566 135.464 53.4382 134.325C53.7579 134.143 53.9405 134.052 53.9405 134.052C54.3058 133.824 54.6711 133.596 55.0365 133.369C58.2786 145.211 55.1734 155.64 47.5933 163.884ZM100.106 128.268C97.5948 134.371 92.3435 149.993 89.1471 149.127C86.4073 148.399 84.7177 136.557 88.5991 124.852C90.5626 118.976 94.718 111.962 97.1382 109.23C101.065 104.857 105.403 103.4 106.454 105.176C107.778 107.499 101.659 124.442 100.106 128.268ZM143.441 148.945C142.391 149.492 141.386 149.856 140.929 149.583C140.61 149.401 141.386 148.672 141.386 148.672C141.386 148.672 146.82 142.842 148.966 140.201C150.199 138.652 151.66 136.83 153.213 134.781C153.213 134.963 153.213 135.191 153.213 135.373C153.213 142.341 146.455 147.032 143.441 148.945ZM176.867 141.339C176.09 140.793 176.227 138.971 178.83 133.278C179.835 131.046 182.209 127.311 186.273 123.713C186.73 125.171 187.05 126.582 187.004 127.903C186.958 136.694 180.657 139.973 176.867 141.339Z" fill="#CD6799"/>
</svg>
