<svg width="35" height="35" viewBox="0 0 166 166" fill="none" xmlns="http://www.w3.org/2000/svg">
  <path d="M166 138.333C166 153.55 153.55 166 138.333 166H27.6667C12.45 166 0 153.55 0 138.333V27.6667C0 12.45 12.45 0 27.6667 0H138.333C153.55 0 166 12.45 166 27.6667V138.333Z" fill="#563D7C"/>
  <path d="M45.1075 36.0752H92.168C100.848 36.0752 107.819 38.0553 113.054 42.0425C118.289 46.0298 120.92 52.0242 120.92 60.0801C120.92 64.9624 119.726 69.1396 117.339 72.6115C114.952 76.0834 111.535 78.7958 107.086 80.6945V80.9657C113.054 82.2406 117.583 85.0615 120.648 89.4285C123.713 93.8226 125.26 99.3017 125.26 105.92C125.26 109.717 124.581 113.271 123.225 116.553C121.869 119.862 119.753 122.71 116.851 125.097C113.949 127.484 110.26 129.382 105.73 130.793C101.2 132.203 95.8298 132.909 89.5912 132.909H45.1075V36.0752ZM62.0602 76.6258H89.7268C93.7955 76.6258 97.186 75.4866 99.8984 73.154C102.611 70.8213 103.967 67.5121 103.967 63.1723C103.967 58.2899 102.746 54.8451 100.305 52.8651C97.8641 50.885 94.3379 49.8814 89.7268 49.8814H62.0602V76.6258ZM62.0602 119.075H92.0324C97.186 119.075 101.2 117.746 104.021 115.061C106.869 112.403 108.307 108.605 108.307 103.723C108.307 98.9219 106.896 95.2602 104.021 92.6562C101.146 90.0523 97.186 88.8046 92.0324 88.8046H62.0602V119.075Z" fill="white"/>
</svg>
