<svg width="35" height="35" viewBox="0 0 170 191" fill="none" xmlns="http://www.w3.org/2000/svg">
  <path d="M153.789 172.21L84.999 190.664L16.2081 172.21L0.334106 0.867279H169.665L153.789 172.21Z" fill="#2062AF"/>
  <path d="M84.9985 14.7457V175.945L85.154 175.987L140.823 161.052L153.672 14.7457H84.9985V14.7457Z" fill="#3C9CD7"/>
  <path d="M84.9373 57.5883L35.7022 78.018L37.3349 98.245L84.9373 77.9667L135.574 56.3968L137.673 35.7054L84.9373 57.5883Z" fill="white"/>
  <path d="M35.7017 78.018L37.3344 98.2449L84.9368 77.9667V57.5883L35.7017 78.018V78.018Z" fill="url(#paint0_linear)"/>
  <path d="M137.673 35.7059L84.9374 57.5883V77.9667L135.574 56.3968L137.673 35.7059Z" fill="url(#paint1_linear)"/>
  <path d="M35.7774 78.018L37.4107 98.245L110.45 98.477L108.817 125.446L84.7823 132.187L61.6783 126.375L60.2784 109.636H38.8106L41.611 141.952L85.0157 154.739L128.185 142.184L133.786 78.018H35.7774V78.018Z" fill="url(#paint2_linear)"/>
  <path opacity="0.05" d="M84.9374 78.018H35.7022L37.335 98.245L84.9374 98.3964V78.018ZM84.9374 132.123L84.704 132.188L61.6031 126.376L60.2031 109.636H38.7359L41.5358 141.952L84.9374 154.739V132.123Z" fill="black"/>
  <path d="M31.268 35.7059H137.673L135.574 56.3972H33.8346L31.268 35.7059V35.7059Z" fill="url(#paint3_linear)"/>
  <path opacity="0.05" d="M84.9374 35.7059H31.268L33.8346 56.3972H84.9374V35.7059V35.7059Z" fill="black"/>
  <defs>
  <linearGradient id="paint0_linear" x1="60.3193" y1="98.2454" x2="60.3193" y2="57.5888" gradientUnits="userSpaceOnUse">
  <stop offset="0.387" stop-color="#D1D3D4" stop-opacity="0"/>
  <stop offset="1" stop-color="#D1D3D4"/>
  </linearGradient>
  <linearGradient id="paint1_linear" x1="111.305" y1="77.9672" x2="111.305" y2="35.7064" gradientUnits="userSpaceOnUse">
  <stop offset="0.387" stop-color="#D1D3D4" stop-opacity="0"/>
  <stop offset="1" stop-color="#D1D3D4"/>
  </linearGradient>
  <linearGradient id="paint2_linear" x1="35.7774" y1="116.379" x2="133.785" y2="116.379" gradientUnits="userSpaceOnUse">
  <stop stop-color="#E8E7E5"/>
  <stop offset="1" stop-color="white"/>
  </linearGradient>
  <linearGradient id="paint3_linear" x1="31.268" y1="46.0516" x2="137.673" y2="46.0516" gradientUnits="userSpaceOnUse">
  <stop stop-color="#E8E7E5"/>
  <stop offset="1" stop-color="white"/>
  </linearGradient>
  </defs>
</svg>
