<svg width="114" height="114" viewBox="0 0 114 114" fill="none" xmlns="http://www.w3.org/2000/svg">
  <path d="M111.78 51.8875L62.0349 2.1486C59.1727 -0.7162 54.5267 -0.7162 51.6609 2.1486L41.3319 12.4786L54.4339 25.5806C57.4798 24.5522 60.971 25.2417 63.3978 27.669C65.8372 30.1114 66.5218 33.6324 65.4676 36.6885L78.0956 49.3165C81.1507 48.2637 84.6756 48.9439 87.1151 51.3877C90.5257 54.7973 90.5257 60.3222 87.1151 63.7327C83.704 67.1443 78.1791 67.1443 74.7661 63.7327C72.2016 61.1662 71.5673 57.3982 72.8662 54.2385L61.0892 42.4615L61.0882 73.4525C61.9197 73.8641 62.7044 74.4135 63.3973 75.1034C66.8069 78.5126 66.8069 84.0365 63.3973 87.4514C59.9867 90.8605 54.4593 90.8605 51.0523 87.4514C47.6422 84.0368 47.6422 78.5129 51.0523 75.1034C51.895 74.2622 52.8702 73.6254 53.9107 73.1986V41.9196C52.8697 41.4946 51.8957 40.8626 51.0517 40.0146C48.4687 37.4336 47.8466 33.6426 49.1713 30.4707L36.2553 17.5527L2.14928 51.6577C-0.716425 54.5247 -0.716425 59.1707 2.14928 62.0357L51.8913 111.775C54.7551 114.639 59.3995 114.639 62.2673 111.775L111.779 62.2707C114.644 59.4045 114.644 54.7571 111.779 51.8917" fill="#F05133"/>
</svg>
