<svg width="35" height="35" viewBox="0 0 95 91" fill="none" xmlns="http://www.w3.org/2000/svg">
  <path d="M5.9785 21.509C-2.3565 33.489 -1.3189 49.075 5.04832 61.804C5.1997 62.1092 5.35838 62.4095 5.51463 62.7098C5.61475 62.9002 5.70872 63.0955 5.81248 63.2835C5.8711 63.3957 5.93698 63.5057 5.99803 63.6131C6.10665 63.8157 6.21775 64.0086 6.33005 64.2063C6.52781 64.5555 6.73045 64.9021 6.93796 65.2488C7.05271 65.4393 7.16624 65.6297 7.28465 65.8201C7.51414 66.1912 7.74974 66.5574 7.99021 66.9236C8.09033 67.0799 8.18796 67.2361 8.2905 67.3875C8.62254 67.8831 8.96189 68.3763 9.3122 68.8621C9.3209 68.8746 9.33045 68.889 9.34145 68.9011C9.39645 68.9792 9.45745 69.0549 9.51357 69.133C9.81631 69.5505 10.1288 69.9631 10.445 70.3708C10.561 70.5197 10.6781 70.6687 10.7953 70.8176C11.0773 71.1716 11.3642 71.5232 11.6559 71.8747C11.7645 72.0065 11.8744 72.1384 11.9843 72.2678C12.3761 72.7292 12.7753 73.1882 13.183 73.6374C13.1905 73.6444 13.2001 73.6545 13.2073 73.6618C13.2245 73.6813 13.2391 73.6935 13.2537 73.713C13.6517 74.1475 14.0594 74.5723 14.472 74.9971C14.6002 75.129 14.7308 75.2608 14.8626 75.3902C15.1824 75.7125 15.5071 76.0299 15.8355 76.3448C15.9686 76.4718 16.1004 76.6012 16.2335 76.7232C16.6717 77.1358 17.1148 77.5411 17.5665 77.9366C17.574 77.9436 17.5798 77.9491 17.5872 77.9537C17.6641 78.0221 17.7435 78.0856 17.8192 78.1515C18.2171 78.4957 18.6224 78.8375 19.0301 79.1745C19.1961 79.3088 19.3645 79.4406 19.5318 79.5749C19.865 79.841 20.2019 80.1047 20.5413 80.3634C20.7207 80.5002 20.9002 80.6369 21.0808 80.7736C21.4556 81.0495 21.8328 81.3205 22.2136 81.5866C22.3528 81.6867 22.4871 81.7844 22.6262 81.8796C22.6652 81.9065 22.7007 81.9333 22.7397 81.9602C23.1011 82.2092 23.4709 82.4484 23.8396 82.6877C23.9983 82.7927 24.1558 82.9025 24.3157 83.0051C24.8821 83.364 25.4571 83.718 26.0381 84.0598C26.1956 84.1502 26.3555 84.238 26.5142 84.3283C26.9414 84.5749 27.3711 84.8166 27.8069 85.0534C28.0425 85.1804 28.2842 85.3 28.5222 85.4221C28.8298 85.5832 29.135 85.7468 29.4475 85.903C29.5182 85.9373 29.5915 85.9714 29.6611 86.0055C29.7869 86.0665 29.9138 86.1252 30.0395 86.1886C30.5241 86.4206 31.0124 86.6476 31.5056 86.8674C31.6106 86.9138 31.7119 86.9602 31.8157 87.0065C32.3809 87.2531 32.9509 87.4899 33.5259 87.717C33.6638 87.7731 33.803 87.8268 33.9422 87.8805C34.4744 88.0856 35.014 88.2883 35.556 88.4787C35.6243 88.5031 35.6902 88.5251 35.7586 88.5494C36.3531 88.7569 36.9537 88.9498 37.5579 89.1378C37.7019 89.1793 37.8472 89.2257 37.9925 89.2672C38.6077 89.4527 39.2157 89.6749 39.8504 89.7921C80.1604 97.1432 91.8694 65.5681 91.8694 65.5681C82.0354 78.3801 64.5794 81.7591 48.0404 77.9971C47.4141 77.8555 46.8063 77.6601 46.1947 77.4795C46.0396 77.4331 45.887 77.3868 45.7344 77.3403C45.1375 77.1572 44.5454 76.9644 43.9571 76.7617C43.8765 76.7325 43.7948 76.7031 43.713 76.6738C43.1857 76.4883 42.6644 76.2929 42.1456 76.0928C41.9991 76.0342 41.8526 75.978 41.7061 75.9194C41.1373 75.6948 40.5721 75.4604 40.0142 75.2163C39.8995 75.1674 39.7896 75.1162 39.6761 75.0674C39.1964 74.8501 38.7215 74.6304 38.2491 74.4033C38.1124 74.3374 37.9757 74.2739 37.8365 74.2056C37.4655 74.0246 37.0985 73.8315 36.7325 73.6435C36.4875 73.5145 36.2385 73.3926 35.9955 73.2576C35.5485 73.0186 35.1095 72.7695 34.6725 72.5155C34.5245 72.4325 34.3745 72.3525 34.2255 72.2665C33.6445 71.9245 33.0705 71.5705 32.5025 71.2115C32.3455 71.1115 32.1925 71.0046 32.0375 70.9016C31.6255 70.6356 31.2155 70.3645 30.8115 70.0865C30.6775 69.9955 30.5485 69.8985 30.4165 69.8085C30.0265 69.5325 29.6405 69.2536 29.2575 68.9706C29.0835 68.8416 28.9125 68.7116 28.7435 68.5826C28.3925 68.3136 28.0435 68.0425 27.6975 67.7645C27.5413 67.64 27.385 67.5155 27.2312 67.391C26.7917 67.0297 26.3572 66.6659 25.9287 66.2924C25.8836 66.2534 25.8347 66.2143 25.7859 66.1728C25.322 65.7651 24.8667 65.3476 24.4163 64.9277C24.2857 64.8032 24.1587 64.6811 24.0305 64.5566C23.6973 64.2392 23.3689 63.9194 23.0466 63.5922C22.9172 63.4628 22.7878 63.3359 22.6609 63.2065C22.2507 62.7866 21.8479 62.3617 21.4536 61.9297C21.4341 61.9077 21.4133 61.8882 21.3938 61.8662C20.9764 61.4096 20.5686 60.9433 20.1694 60.4722C20.0608 60.3428 19.9558 60.2183 19.8484 60.0913C19.5505 59.7324 19.2551 59.3687 18.967 59.0024C18.859 58.8704 18.751 58.7354 18.644 58.5994C18.297 58.1494 17.958 57.7004 17.626 57.2444C8.44375 44.7194 5.14505 27.4444 12.484 13.2574" fill="#0868AC"/>
  <path d="M31.852 11.416C25.8242 20.0903 26.1513 31.702 30.8535 40.876C31.642 42.4141 32.5283 43.9058 33.5195 45.3267C34.4228 46.6206 35.4238 48.1612 36.6225 49.2012C37.057 49.6797 37.5111 50.146 37.975 50.605C38.0921 50.7246 38.2118 50.8394 38.3314 50.9566C38.7818 51.3936 39.2396 51.8233 39.7132 52.2408C39.7327 52.2554 39.7498 52.2749 39.7693 52.2897C39.7743 52.2947 39.7793 52.2967 39.7827 52.3022C40.3064 52.7612 40.8471 53.2031 41.3965 53.6376C41.5186 53.7303 41.6394 53.828 41.7627 53.9232C42.3133 54.3456 42.8748 54.7606 43.4509 55.1561C43.468 55.1686 43.4827 55.1805 43.4998 55.1927C43.7537 55.3685 44.0125 55.5321 44.2701 55.7005C44.3933 55.7811 44.5105 55.8666 44.6351 55.9422C45.0464 56.2059 45.4627 56.4623 45.8863 56.7088C45.9461 56.7454 46.0046 56.7772 46.0633 56.8113C46.4283 57.0213 46.7981 57.2288 47.1693 57.429C47.2986 57.5022 47.4305 57.5657 47.5623 57.6341C47.8187 57.7683 48.075 57.9051 48.3362 58.0345C48.3752 58.054 48.4156 58.0711 48.4534 58.0883C48.9844 58.3495 49.5203 58.601 50.0672 58.8402C50.1843 58.8915 50.3052 58.9378 50.4236 58.9867C50.8606 59.1723 51.3025 59.3529 51.7468 59.5238C51.9348 59.5946 52.1252 59.663 52.3132 59.7313C52.716 59.8803 53.1201 60.017 53.5278 60.1537C53.7121 60.2123 53.8928 60.2733 54.0771 60.3295C54.6569 60.5101 55.2294 60.7372 55.8337 60.8373C86.9567 65.9935 94.1417 42.0313 94.1417 42.0313C87.6647 51.3599 75.1217 55.8103 61.7367 52.3363C61.1422 52.18 60.5563 52.0091 59.974 51.826C59.7958 51.7723 59.6212 51.7138 59.4442 51.6551C59.0304 51.5208 58.619 51.3792 58.2113 51.2303C58.0246 51.1619 57.8378 51.0936 57.6547 51.0228C57.2079 50.8519 56.766 50.6737 56.3278 50.4881C56.2082 50.4368 56.0873 50.3905 55.9701 50.3368C55.4208 50.0975 54.88 49.8461 54.3466 49.5824C54.0719 49.4481 53.8022 49.3065 53.5324 49.1673C53.3761 49.0868 53.2187 49.0062 53.0624 48.9256C52.7157 48.7377 52.3715 48.5423 52.0321 48.3446C51.9516 48.2982 51.8673 48.2542 51.7855 48.2054C51.3644 47.9588 50.9493 47.7049 50.5379 47.4437C50.411 47.3631 50.2889 47.2753 50.162 47.1922C49.891 47.0165 49.62 46.8382 49.3539 46.6576C48.7801 46.2621 48.2223 45.847 47.6718 45.4271C47.5448 45.3269 47.4179 45.2293 47.2933 45.1292C41.4343 40.5032 36.7903 34.1822 34.5823 27.0142C32.2683 19.5802 32.7673 11.2352 36.7763 4.46322" fill="#0868AC"/>
  <path d="M53.613 3.875C50.0595 9.1045 49.7104 15.599 52.1762 21.375C54.7763 27.5054 60.1047 32.315 66.3232 34.595C66.5795 34.6903 66.8359 34.7757 67.0959 34.8635C67.2094 34.8977 67.3217 34.9369 67.4365 34.9709C67.8027 35.0857 68.1665 35.2199 68.5449 35.2907C85.7299 38.611 90.3909 26.4723 91.6319 24.6857C87.5487 30.5646 80.6869 31.9758 72.2679 29.9324C71.6029 29.7704 70.8719 29.5303 70.2309 29.3033C69.4089 29.0103 68.5989 28.6764 67.8119 28.2984C66.3169 27.5804 64.8919 26.7084 63.5709 25.7104C56.0369 19.9943 51.3569 9.08935 56.2729 0.208351" fill="#0868AC"/>
</svg>
