<svg width="146" height="161" viewBox="0 0 146 161" fill="none" xmlns="http://www.w3.org/2000/svg">
  <path d="M15.5 2C15.775 2 16 1.55 16 1C16 0.00749999 16.3335 0 61.2525 0H106.505L118.253 11.7475C124.714 18.2085 130 23.8335 130 24.2475C130 24.6615 130.225 25 130.5 25C130.826 25 131 32.8335 131 47.5V70H138.5H146V103.286C146 131.467 145.891 136.681 145.286 137.286C144.737 137.835 143 138 137.786 138H131V148.286C131 156.534 130.859 158.713 130.286 159.286C129.212 160.36 16.7885 160.36 15.7145 159.286C15.1415 158.713 15 156.534 15 148.286V138H8.2145C3 138 1.263 137.835 0.7145 137.286C0.1095 136.681 0 131.467 0 103.286V70H7.5H15V36C15 13.6665 15.1715 2 15.5 2Z" fill="white"/>
  <path fill-rule="evenodd" clip-rule="evenodd" d="M16 1C16 1.55 15.775 2 15.5 2C15.1715 2 15 13.6665 15 36V70H7.5H0V103.286C0 131.467 0.1095 136.681 0.7145 137.286C1.263 137.835 3 138 8.2145 138H15V148.286C15 156.534 15.1415 158.713 15.7145 159.286C16.7885 160.36 129.212 160.36 130.286 159.286C130.859 158.713 131 156.534 131 148.286V138H137.786C143 138 144.737 137.835 145.286 137.286C145.891 136.681 146 131.467 146 103.286V70H138.5H131V47.5C131 32.8335 130.826 25 130.5 25C130.225 25 130 24.6615 130 24.2475C130 23.8335 124.714 18.2085 118.253 11.7475L106.505 0H61.2525C16.3335 0 16 0.00749999 16 1ZM126 48.5C126 27.3335 125.984 27 125 27C125 27 111.5 26.5 108.5 24C102.5 19 103 13.5 103 11V4H61.5H20V37V70H73H126V48.5ZM123 23C120.269 20.25 107.415 8 107.268 8C107.121 8 107 9.8 107 12C107 14.3335 108 17.5 109 18.7725C110.5 20.5 112.5 22 114 22.5C114 22.5 115.667 23 118 23C120.2 23 123 23.165 123 23ZM141.204 133.367C141.913 132.658 142 129.394 142 103.286V74H73H4V103.5C4 132.667 4.0115 133 5 133C5.55 133 6 133.225 6 133.5C6 134.305 138.844 134.18 139.171 133.375C139.365 132.896 139.539 132.914 139.917 133.456C140.336 134.057 140.527 134.045 141.204 133.367ZM126 156V147V138H73H20V147V156H73H126Z" fill="black"/>
  <path d="M35.105 28.283L33.9595 29.505L35.207 30.7525L36.4545 32H62.5H88.5455L89.7955 30.75L91.0455 29.5L89.7955 28.25L88.5455 27L62.3975 27.0305L36.25 27.061L35.105 28.283Z" fill="black"/>
  <path d="M34.521 41.8595C33.9825 42.4655 33.95 42.7335 34.396 42.882C34.728 42.9925 35 43.5145 35 44.0415C35 44.9775 35.884 45 73 45C110.116 45 111 44.9775 111 44.0415C111 43.5145 111.279 42.9905 111.62 42.8765C112.072 42.726 112.013 42.442 111.406 41.835C110.641 41.0695 107.437 41.0015 72.9105 41.019C38.6255 41.0365 35.1845 41.1115 34.521 41.8595Z" fill="black"/>
  <path d="M34.625 54.748C33.8095 55.6745 33.835 56.4065 34.7145 57.2855C35.786 58.357 110.214 58.357 111.286 57.2855C112.191 56.3805 112.191 55.6195 111.286 54.7145C110.218 53.647 35.5655 53.6795 34.625 54.748Z" fill="black"/>
  <path d="M96 104V119H106.5H117V116.5V114H109.5H102V101.5V89H99H96V104Z" fill="black"/>
  <path d="M29 119H35.5L43 107L50 119H56.5L46.5 103.5L55.5 89H49L43 100L37 89H30.5L39 103.5L29 119Z" fill="black"/>
  <path d="M60 104V119H63H66V108C66 101 65.682 97 66 97L72 119H75H78L84 96.1105V119H86.5H89V104V89H80L75 108L69 89H60V104Z" fill="black"/>
</svg>
