<svg width="148" height="147" viewBox="0 0 148 147" fill="none" xmlns="http://www.w3.org/2000/svg">
  <path d="M73.5 40C66.8743 40 60.3974 41.9647 54.8884 45.6458C49.3794 49.3268 45.0856 54.5588 42.55 60.6801C40.0145 66.8014 39.3511 73.5372 40.6437 80.0355C41.9363 86.5339 45.1269 92.503 49.8119 97.1881C54.497 101.873 60.4661 105.064 66.9645 106.356C73.4628 107.649 80.1986 106.985 86.3199 104.45C92.4412 101.914 97.6732 97.6206 101.354 92.1116C105.035 86.6026 107 80.1257 107 73.5C106.989 64.6185 103.457 56.1038 97.1764 49.8236C90.8962 43.5434 82.3815 40.0106 73.5 40V40Z" fill="#478AFF"/>
  <path d="M121.6 42.97C130.028 42.97 136.86 36.1379 136.86 27.71C136.86 19.2821 130.028 12.45 121.6 12.45C113.172 12.45 106.34 19.2821 106.34 27.71C106.34 36.1379 113.172 42.97 121.6 42.97Z" fill="#478AFF"/>
  <path d="M140.39 43.05L139.75 41.65L138.75 42.81C136.248 45.6487 133.085 47.8264 129.54 49.15L128.54 49.51L128.94 50.51C134.329 63.4704 135.011 77.9085 130.868 91.3193C126.725 104.73 118.018 116.267 106.257 123.929C94.4964 131.591 80.4247 134.894 66.4833 133.266C52.5418 131.637 39.6104 125.179 29.9326 115.013C20.2548 104.846 14.4413 91.6129 13.5007 77.6082C12.5602 63.6035 16.5519 49.7114 24.7834 38.3422C33.0148 26.973 44.9666 18.8441 58.565 15.3658C72.1635 11.8876 86.5505 13.2795 99.23 19.3L100.17 19.75L100.58 18.75C102.074 15.2741 104.403 12.2206 107.36 9.86L108.56 8.86L107.19 8.14999C96.7821 2.7406 85.2196 -0.0693778 73.49 -0.0399941C57.6091 -0.0377136 42.1559 5.10747 29.4433 14.6255C16.7306 24.1436 7.44219 37.5226 2.9681 52.7603C-1.50598 67.998 -0.925115 84.2748 4.62378 99.1548C10.1727 114.035 20.3912 126.718 33.7499 135.305C47.1087 143.893 62.8893 147.924 78.73 146.794C94.5707 145.664 109.62 139.435 121.624 129.038C133.629 118.642 141.944 104.637 145.325 89.1199C148.706 73.603 146.971 57.4085 140.38 42.96L140.39 43.05Z" fill="#478AFF"/>
</svg>
