<svg width="35" height="35" viewBox="0 0 153 208" fill="none" xmlns="http://www.w3.org/2000/svg">
  <path fill-rule="evenodd" clip-rule="evenodd" d="M49.5591 160.194C49.5591 160.194 41.6659 164.799 55.1829 166.353C71.5609 168.227 79.9301 167.957 97.9731 164.539C97.9731 164.539 102.726 167.519 109.353 170.1C68.8924 187.475 17.7819 169.094 49.5591 160.194Z" fill="#0074BD"/>
  <path fill-rule="evenodd" clip-rule="evenodd" d="M44.6125 137.517C44.6125 137.517 35.7582 144.088 49.2853 145.489C66.782 147.3 80.5944 147.448 104.509 142.835C104.509 142.835 107.809 146.195 113.006 148.031C64.0938 162.371 9.61576 149.159 44.6125 137.517Z" fill="#0074BD"/>
  <path fill-rule="evenodd" clip-rule="evenodd" d="M86.2904 99.0445C96.2651 110.553 83.6748 120.901 83.6748 120.901C83.6748 120.901 108.988 107.806 97.3651 91.3998C86.5062 76.1073 78.1809 68.5107 123.252 42.3122C123.252 42.3122 52.5016 60.0187 86.2904 99.0445Z" fill="#EA2D2E"/>
  <path fill-rule="evenodd" clip-rule="evenodd" d="M139.802 176.97C139.802 176.97 145.646 181.798 133.367 185.532C110.018 192.62 36.1683 194.758 15.6565 185.815C8.28809 182.599 22.1123 178.14 26.4619 177.198C30.9971 176.215 33.5866 176.395 33.5866 176.395C25.3862 170.607 -19.4166 187.762 10.8318 192.682C93.3204 206.083 161.196 186.646 139.802 176.97Z" fill="#0074BD"/>
  <path fill-rule="evenodd" clip-rule="evenodd" d="M53.3578 114.018C53.3578 114.018 15.7982 122.962 40.0575 126.213C50.3039 127.587 70.7174 127.271 89.7462 125.671C105.293 124.363 120.895 121.566 120.895 121.566C120.895 121.566 115.417 123.921 111.451 126.634C73.3023 136.691 -0.3805 132.007 20.8349 121.726C38.7688 113.03 53.3578 114.018 53.3578 114.018Z" fill="#0074BD"/>
  <path fill-rule="evenodd" clip-rule="evenodd" d="M120.74 151.765C159.517 131.574 141.586 112.169 129.071 114.783C126.011 115.423 124.638 115.977 124.638 115.977C124.638 115.977 125.778 114.187 127.949 113.417C152.708 104.696 171.744 139.144 119.965 152.787C119.964 152.787 120.56 152.247 120.74 151.765Z" fill="#0074BD"/>
  <path fill-rule="evenodd" clip-rule="evenodd" d="M97.3655 0C97.3655 0 118.836 21.5323 76.995 54.6336C43.4411 81.1969 69.3445 96.3368 76.9831 113.644C57.3952 95.9318 43.0278 80.3377 52.6647 65.8264C66.8163 44.5282 106.026 34.1988 97.3655 0Z" fill="#EA2D2E"/>
  <path fill-rule="evenodd" clip-rule="evenodd" d="M57.1703 206.496C94.3834 208.881 151.544 205.169 152.897 187.519C152.897 187.519 150.297 194.21 122.14 199.519C90.3744 205.513 51.1867 204.815 27.9532 200.97C27.9532 200.97 32.713 204.919 57.1703 206.496Z" fill="#0074BD"/>
</svg>
