<svg width="35" height="35" viewBox="0 0 537 537" fill="none" xmlns="http://www.w3.org/2000/svg">
  <path d="M537 0H0V537H537V0Z" fill="#FFC531"/>
  <path fill-rule="evenodd" clip-rule="evenodd" d="M248.75 159.356C248.337 159.635 247.437 159.868 246.75 159.873C242.941 159.902 236.454 166.71 235.609 171.565C234.481 178.041 235.562 183.072 238.835 186.585C239.338 187.125 239.75 187.726 239.75 187.921C239.75 189.518 247.858 192.861 251.757 192.871C256.135 192.883 259.752 191.352 262.987 188.116C265.331 185.773 265.737 185.149 266.779 182.3C268.552 177.449 267.733 169.226 265.154 165.977C263.863 164.351 261.388 161.993 260.061 161.123C257.659 159.549 250.189 158.382 248.75 159.356ZM459.072 211.224C458.85 211.447 456.943 211.783 454.834 211.971C444.419 212.9 428.302 219.007 424.75 223.37C424.612 223.539 423.712 224.226 422.75 224.897C420.501 226.465 416.336 230.63 414.768 232.879C414.097 233.841 413.41 234.741 413.241 234.879C412.385 235.575 409.617 240.153 407.495 244.379C405.059 249.233 404.516 250.619 403.68 254.129C403.418 255.229 402.972 257.029 402.689 258.129C400.46 266.779 400.471 282.906 402.712 291.754C403.008 292.922 403.454 294.723 403.703 295.754C404.527 299.16 405.087 300.581 407.495 305.379C409.617 309.605 412.385 314.182 413.241 314.879C413.41 315.016 414.097 315.916 414.769 316.879C420.007 324.388 433.83 333.461 443.75 335.902C444.712 336.139 446.512 336.588 447.75 336.9C456.54 339.113 471.921 339.121 480.625 336.917C481.794 336.621 483.594 336.186 484.625 335.951C485.656 335.716 487.287 335.179 488.25 334.757C489.212 334.335 491.228 333.459 492.729 332.81C495.27 331.71 501.185 328.173 501.75 327.416C501.887 327.232 502.787 326.531 503.75 325.86C511.259 320.621 520.332 306.799 522.773 296.879C523.01 295.916 523.453 294.116 523.758 292.879C525.225 286.925 525.407 284.926 525.396 274.879C525.384 262.869 524.74 257.663 522.566 252.004C522.117 250.835 521.41 248.968 520.994 247.855C519.413 243.621 514.646 235.008 513.259 233.879C513.09 233.741 512.403 232.841 511.731 231.879C510.164 229.63 505.998 225.465 503.75 223.897C502.787 223.226 501.88 222.507 501.734 222.3C501.511 221.984 497.665 219.759 493.5 217.535C490.614 215.994 484.59 213.786 480.5 212.771C476.115 211.682 459.791 210.503 459.072 211.224ZM367.75 212.379C367.337 212.645 366.116 212.867 365.035 212.871C363.955 212.875 362.38 213.089 361.535 213.345C360.691 213.601 359.1 214.033 358 214.304C344.274 217.684 335.808 221.11 327.769 226.535C323.625 229.331 322.563 230.292 320.755 232.879C320.083 233.841 319.233 234.937 318.866 235.314C318.5 235.691 317.28 237.829 316.155 240.064C311.434 249.448 311.183 252.074 310.936 294.582C310.702 334.83 309.946 330.442 317.375 331.91C318.681 332.168 320.875 332.604 322.25 332.879C323.625 333.154 325.931 333.611 327.375 333.895C328.819 334.179 331.125 334.638 332.5 334.916C333.875 335.194 335.562 335.468 336.25 335.525L337.5 335.629L337.752 297.379C337.925 271.16 338.18 258.652 338.561 257.615C341.965 248.339 349.766 242.937 362.75 240.863C364.262 240.622 366.737 240.18 368.25 239.88C369.762 239.581 372.012 239.177 373.25 238.982L375.5 238.629L375.633 225.254L375.766 211.879L372.133 211.886C370.135 211.891 368.162 212.112 367.75 212.379ZM263.023 214.272C262.844 214.451 261.416 214.763 259.849 214.965C258.282 215.167 255.819 215.568 254.375 215.856C252.931 216.143 250.569 216.611 249.125 216.895C247.681 217.179 245.487 217.618 244.25 217.871C243.012 218.124 241.1 218.514 240 218.738L238 219.146V274.879V330.612L240 331.019C243.05 331.641 250.376 333.108 254.125 333.847C255.431 334.105 257.512 334.577 258.75 334.896C259.987 335.214 261.787 335.51 262.75 335.552L264.5 335.629L264.627 275.058C264.757 212.877 264.748 212.547 263.023 214.272ZM471.964 236.345C472.809 236.601 474.512 237.092 475.75 237.436C507.311 246.2 506.337 305.106 474.5 313.037C471.67 313.742 457.852 314.043 455.75 313.446C454.787 313.172 452.74 312.585 451.199 312.141C419.891 303.108 419.929 247.605 451.25 237.959C453.312 237.324 455.562 236.62 456.25 236.395C458.004 235.82 470.108 235.781 471.964 236.345Z" fill="#050038"/>
  <path d="M75 212.5C68.748 212.52 57.389 216.794 51.16 222.928C47.143 226.883 46.8165 226.65 46.641 219.706L46.5 214.129L20 219.146V274.879V330.612L46.5 335.629L46.75 293.879L47 252.129L48.626 249.016C54.2755 238.201 75.257 233.356 83.336 241C83.701 241.346 84.7875 242.221 85.75 242.945C86.7125 243.669 88.256 245.521 89.18 247.06C92.6925 252.911 92.474 250.139 92.75 292.37L93 330.612L118.5 335.629L118.777 295.879C118.962 269.293 119.237 255.466 119.605 254.129C121.243 248.189 121.738 247.299 125.388 243.744C135.553 233.843 156.333 236.282 162.353 248.082C164.511 252.31 164.487 251.872 164.747 291.87L165 330.612L191.5 335.629L191.424 295.879C191.342 252.595 191.115 247.697 188.865 240.629C188.203 238.547 183.45 229.155 182.635 228.316C182.268 227.938 181.417 226.841 180.744 225.879C179.2 223.669 177.959 222.428 175.75 220.884C174.787 220.212 173.691 219.361 173.313 218.994C172.265 217.976 164.289 214.142 161.75 213.436C160.512 213.092 158.809 212.601 157.964 212.345C157.12 212.089 152.748 211.879 148.25 211.879C143.751 211.879 139.38 212.089 138.535 212.345C137.691 212.601 135.987 213.093 134.75 213.437C132.224 214.139 122.25 218.961 121.188 219.993C120.809 220.361 119.712 221.209 118.75 221.879C116.66 223.332 116.406 223.584 114.599 226.004C112.952 228.209 111.694 228.381 110.503 226.564C107.094 221.36 99.247 215.852 91.559 213.266L75 212.5Z" fill="#050038"/>
</svg>
